<?xml version="1.0" encoding="utf-8"?>
<!-- Generator: Adobe Adobe Illustrator 24.2.0, SVG Export Plug-In . SVG Version: 6.00 Build 0)  -->
<svg version="1.1" xmlns="http://www.w3.org/2000/svg" xmlns:xlink="http://www.w3.org/1999/xlink" x="0px" y="0px" width="800px"
	 height="800px" viewBox="0 0 800 800" style="enable-background:new 0 0 800 800;" xml:space="preserve">
<style type="text/css">
	.st0{fill:none;stroke:#FFABE7;stroke-width:41;stroke-linecap:round;stroke-linejoin:round;stroke-miterlimit:10;}
	.st1{fill:#009499;}
	.st2{fill:#FFFFFF;stroke:#000000;stroke-miterlimit:10;}
	.st3{fill:#004F52;}
	.st4{opacity:0.6588;fill:none;stroke:#FFABE7;stroke-width:41;stroke-linecap:round;stroke-linejoin:round;stroke-miterlimit:10;}
</style>
<g id="Layer_2">
	<polyline class="st0" points="91.42,577.28 295.36,416.21 198.29,654.08 	"/>
</g>
<g id="Layer_1">
	<path class="st1" d="M61.5,387.28c0-98.42,121.45-176.14,229.06-176.14c25.49,0,122.73,360.98,139.44,357.14
		c17.31-3.97-29.86-361.57,4.57-361.57c157.65,0,303.93,83.04,303.93,180.57c0,113.77-151.55,206-338.5,206
		C213.05,593.28,61.5,501.05,61.5,387.28z"/>
</g>
<g id="Layer_1_copy">
	<path class="st3" d="M61.5,387.28c0-98.42,121.45-176.14,229.06-176.14c25.49,0,122.73,360.98,139.44,357.14
		c17.31-3.97-29.86-361.57,4.57-361.57c157.65,0,303.93,83.04,303.93,180.57c0,113.77-151.55,206-338.5,206
		C213.05,593.28,61.5,501.05,61.5,387.28z"/>
</g>
<g id="Layer_2_copy">
	<polyline class="st4" points="91.42,577.28 295.36,416.21 198.29,654.08 	"/>
</g>
</svg>
